<svg width="45" height="44" viewBox="0 0 45 44" fill="none" xmlns="http://www.w3.org/2000/svg">
<rect x="0.666748" width="44" height="44" rx="5" fill="#4D4D4D"/>
<g clip-path="url(#clip0_868_4202)">
<path d="M32.6667 15.7988C31.923 16.125 31.1305 16.3412 30.3042 16.4462C31.1542 15.9388 31.803 15.1412 32.108 14.18C31.3155 14.6525 30.4405 14.9863 29.508 15.1725C28.7555 14.3713 27.683 13.875 26.513 13.875C24.243 13.875 22.4155 15.7175 22.4155 17.9763C22.4155 18.3012 22.443 18.6137 22.5105 18.9112C19.1017 18.745 16.0855 17.1113 14.0592 14.6225C13.7055 15.2363 13.498 15.9388 13.498 16.695C13.498 18.115 14.2292 19.3737 15.3192 20.1025C14.6605 20.09 14.0142 19.8988 13.4667 19.5975C13.4667 19.61 13.4667 19.6262 13.4667 19.6425C13.4667 21.635 14.888 23.29 16.7517 23.6712C16.418 23.7625 16.0542 23.8062 15.6767 23.8062C15.4142 23.8062 15.1492 23.7913 14.9005 23.7362C15.4317 25.36 16.9392 26.5538 18.7317 26.5925C17.3367 27.6838 15.5655 28.3412 13.648 28.3412C13.3117 28.3412 12.9892 28.3263 12.6667 28.285C14.483 29.4563 16.6355 30.125 18.9567 30.125C26.5017 30.125 30.6267 23.875 30.6267 18.4575C30.6267 18.2762 30.6205 18.1013 30.6117 17.9275C31.4255 17.35 32.1092 16.6288 32.6667 15.7988Z" fill="white"/>
</g>
<defs>
<clipPath id="clip0_868_4202">
<rect width="20" height="20" fill="white" transform="translate(12.6667 12)"/>
</clipPath>
</defs>
</svg>
