<svg width="45" height="44" viewBox="0 0 45 44" fill="none" xmlns="http://www.w3.org/2000/svg">
<rect x="0.333252" width="44" height="44" rx="5" fill="#4D4D4D"/>
<g clip-path="url(#clip0_868_4203)">
<path d="M32.3283 32.0008V32H32.3333V24.665C32.3333 21.0767 31.5608 18.3125 27.3658 18.3125C25.3492 18.3125 23.9958 19.4192 23.4433 20.4683H23.385V18.6475H19.4075V32H23.5491V25.3883C23.5491 23.6475 23.8791 21.9642 26.035 21.9642C28.1592 21.9642 28.1908 23.9508 28.1908 25.5V32.0008H32.3283Z" fill="white"/>
<path d="M12.6633 18.6484H16.81V32.0009H12.6633V18.6484Z" fill="white"/>
<path d="M14.7349 12C13.4091 12 12.3333 13.0758 12.3333 14.4017C12.3333 15.7275 13.4091 16.8258 14.7349 16.8258C16.0608 16.8258 17.1366 15.7275 17.1366 14.4017C17.1358 13.0758 16.0599 12 14.7349 12V12Z" fill="white"/>
</g>
<defs>
<clipPath id="clip0_868_4203">
<rect width="20" height="20" fill="white" transform="translate(12.3333 12)"/>
</clipPath>
</defs>
</svg>
