<svg width="20" height="20" viewBox="0 0 20 20" fill="none" xmlns="http://www.w3.org/2000/svg">
<path d="M14.1667 2.91602H5.83342C3.33341 2.91602 1.66675 4.16602 1.66675 7.08268V12.916C1.66675 15.8327 3.33341 17.0827 5.83342 17.0827H14.1667C16.6667 17.0827 18.3334 15.8327 18.3334 12.916V7.08268C18.3334 4.16602 16.6667 2.91602 14.1667 2.91602ZM14.5584 7.99102L11.9501 10.0743C11.4001 10.516 10.7001 10.7327 10.0001 10.7327C9.30008 10.7327 8.59175 10.516 8.05008 10.0743L5.44175 7.99102C5.17508 7.77435 5.13341 7.37435 5.34175 7.10768C5.55841 6.84102 5.95008 6.79102 6.21675 7.00768L8.82508 9.09102C9.45842 9.59935 10.5334 9.59935 11.1667 9.09102L13.7751 7.00768C14.0417 6.79102 14.4417 6.83268 14.6501 7.10768C14.8667 7.37435 14.8251 7.77435 14.5584 7.99102Z" fill="#DA1919"/>
</svg>
